<mxfile host="app.diagrams.net" modified="2023-11-15T03:26:50.511Z" agent="Mozilla/5.0 (Macintosh; Intel Mac OS X 10_15_7) AppleWebKit/537.36 (KHTML, like Gecko) Chrome/118.0.0.0 Safari/537.36" etag="bhkv-h1QpWHm_GgXxS_7" version="21.2.9" type="device">
  <diagram name="第 1 页" id="3c9F7NI-pUoZ_cWMFB3R">
    <mxGraphModel dx="1941" dy="626" grid="1" gridSize="10" guides="1" tooltips="1" connect="1" arrows="1" fold="1" page="1" pageScale="1" pageWidth="827" pageHeight="1169" math="0" shadow="0">
      <root>
        <mxCell id="0" />
        <mxCell id="1" parent="0" />
        <mxCell id="Evi0lRvi-5mqzo9GXGQU-8" value="" style="edgeStyle=orthogonalEdgeStyle;rounded=0;orthogonalLoop=1;jettySize=auto;html=1;" edge="1" parent="1" source="Evi0lRvi-5mqzo9GXGQU-4" target="Evi0lRvi-5mqzo9GXGQU-7">
          <mxGeometry relative="1" as="geometry">
            <Array as="points">
              <mxPoint x="590" y="345" />
              <mxPoint x="590" y="345" />
            </Array>
          </mxGeometry>
        </mxCell>
        <mxCell id="Evi0lRvi-5mqzo9GXGQU-4" value="&lt;div style=&quot;&quot;&gt;&lt;span style=&quot;background-color: initial;&quot;&gt;&amp;lt;&amp;lt;device&amp;gt;&amp;gt;&lt;/span&gt;&lt;/div&gt;&lt;div style=&quot;&quot;&gt;Android Mobile phone&lt;/div&gt;" style="verticalAlign=top;align=center;shape=cube;size=10;direction=south;fontStyle=0;html=1;boundedLbl=1;spacingLeft=5;whiteSpace=wrap;" vertex="1" parent="1">
          <mxGeometry x="300" y="250" width="220" height="200" as="geometry" />
        </mxCell>
        <mxCell id="Evi0lRvi-5mqzo9GXGQU-5" value="&amp;lt;&amp;lt;execution Environment&amp;gt;&amp;gt;&lt;br&gt;Android OS" style="verticalAlign=top;align=center;shape=cube;size=10;direction=south;html=1;boundedLbl=1;spacingLeft=5;whiteSpace=wrap;" vertex="1" parent="Evi0lRvi-5mqzo9GXGQU-4">
          <mxGeometry width="170" height="80" relative="1" as="geometry">
            <mxPoint x="25" y="70" as="offset" />
          </mxGeometry>
        </mxCell>
        <mxCell id="Evi0lRvi-5mqzo9GXGQU-6" value="&lt;div style=&quot;&quot;&gt;&lt;span style=&quot;background-color: initial;&quot;&gt;&amp;lt;&amp;lt;device&amp;gt;&amp;gt;&lt;/span&gt;&lt;/div&gt;&lt;div style=&quot;&quot;&gt;&lt;b&gt;Data Server&lt;/b&gt;&lt;/div&gt;" style="verticalAlign=top;align=center;shape=cube;size=10;direction=south;fontStyle=0;html=1;boundedLbl=1;spacingLeft=5;whiteSpace=wrap;" vertex="1" parent="1">
          <mxGeometry x="620" y="250" width="220" height="200" as="geometry" />
        </mxCell>
        <mxCell id="Evi0lRvi-5mqzo9GXGQU-7" value="&amp;lt;&amp;lt;execution Environment&amp;gt;&amp;gt;&lt;br&gt;&lt;b&gt;My SQL&lt;/b&gt;" style="verticalAlign=top;align=center;shape=cube;size=10;direction=south;html=1;boundedLbl=1;spacingLeft=5;whiteSpace=wrap;" vertex="1" parent="Evi0lRvi-5mqzo9GXGQU-6">
          <mxGeometry width="170" height="80" relative="1" as="geometry">
            <mxPoint x="25" y="70" as="offset" />
          </mxGeometry>
        </mxCell>
        <mxCell id="Evi0lRvi-5mqzo9GXGQU-13" value="" style="edgeStyle=orthogonalEdgeStyle;rounded=0;orthogonalLoop=1;jettySize=auto;html=1;" edge="1" parent="1" source="Evi0lRvi-5mqzo9GXGQU-10" target="Evi0lRvi-5mqzo9GXGQU-5">
          <mxGeometry relative="1" as="geometry">
            <Array as="points">
              <mxPoint x="290" y="345" />
              <mxPoint x="290" y="345" />
            </Array>
          </mxGeometry>
        </mxCell>
        <mxCell id="Evi0lRvi-5mqzo9GXGQU-10" value="&lt;div style=&quot;&quot;&gt;&lt;span style=&quot;background-color: initial;&quot;&gt;&amp;lt;&amp;lt;device&amp;gt;&amp;gt;&lt;/span&gt;&lt;/div&gt;&lt;div style=&quot;&quot;&gt;&lt;span style=&quot;background-color: initial;&quot;&gt;Application&amp;nbsp;&lt;/span&gt;&lt;span style=&quot;background-color: initial;&quot;&gt;Server&lt;/span&gt;&lt;/div&gt;&lt;div style=&quot;&quot;&gt;&lt;br&gt;&lt;/div&gt;" style="verticalAlign=top;align=center;shape=cube;size=10;direction=south;fontStyle=0;html=1;boundedLbl=1;spacingLeft=5;whiteSpace=wrap;" vertex="1" parent="1">
          <mxGeometry x="-10" y="250" width="220" height="200" as="geometry" />
        </mxCell>
        <mxCell id="Evi0lRvi-5mqzo9GXGQU-11" value="&amp;lt;&amp;lt;android Application&amp;gt;&amp;gt;&lt;br&gt;A movie I recommend.apk" style="verticalAlign=top;align=center;shape=cube;size=10;direction=south;html=1;boundedLbl=1;spacingLeft=5;whiteSpace=wrap;" vertex="1" parent="Evi0lRvi-5mqzo9GXGQU-10">
          <mxGeometry width="170" height="80" relative="1" as="geometry">
            <mxPoint x="25" y="70" as="offset" />
          </mxGeometry>
        </mxCell>
      </root>
    </mxGraphModel>
  </diagram>
</mxfile>
